<mxfile host="app.diagrams.net" agent="Mozilla/5.0 (Macintosh; Intel Mac OS X 10_15_7) AppleWebKit/537.36 (KHTML, like Gecko) Chrome/138.0.0.0 Safari/537.36" version="27.2.0">
  <diagram name="第 1 页" id="srNXcD1UIPZfmjY191VH">
    <mxGraphModel dx="1186" dy="1817" grid="1" gridSize="10" guides="1" tooltips="1" connect="1" arrows="1" fold="1" page="1" pageScale="1" pageWidth="827" pageHeight="1169" math="0" shadow="0">
      <root>
        <mxCell id="0" />
        <mxCell id="1" parent="0" />
        <mxCell id="-f07cawAVxxKStE9k8_m-2" value="" style="whiteSpace=wrap;html=1;" vertex="1" parent="1">
          <mxGeometry x="160" y="40" width="480" height="440" as="geometry" />
        </mxCell>
        <mxCell id="-f07cawAVxxKStE9k8_m-3" value="" style="rounded=0;whiteSpace=wrap;html=1;" vertex="1" parent="1">
          <mxGeometry x="160" y="40" width="120" height="440" as="geometry" />
        </mxCell>
        <mxCell id="-f07cawAVxxKStE9k8_m-4" value="顶部" style="rounded=0;whiteSpace=wrap;html=1;" vertex="1" parent="1">
          <mxGeometry x="280" y="40" width="360" height="40" as="geometry" />
        </mxCell>
        <mxCell id="-f07cawAVxxKStE9k8_m-5" value="版权" style="rounded=0;whiteSpace=wrap;html=1;" vertex="1" parent="1">
          <mxGeometry x="280" y="450" width="360" height="30" as="geometry" />
        </mxCell>
        <mxCell id="-f07cawAVxxKStE9k8_m-6" value="分页器/滚动加载" style="rounded=0;whiteSpace=wrap;html=1;" vertex="1" parent="1">
          <mxGeometry x="280" y="420" width="360" height="30" as="geometry" />
        </mxCell>
        <mxCell id="-f07cawAVxxKStE9k8_m-7" value="表格/列表" style="rounded=0;whiteSpace=wrap;html=1;" vertex="1" parent="1">
          <mxGeometry x="280" y="120" width="360" height="300" as="geometry" />
        </mxCell>
        <mxCell id="-f07cawAVxxKStE9k8_m-8" value="筛选" style="rounded=0;whiteSpace=wrap;html=1;" vertex="1" parent="1">
          <mxGeometry x="280" y="80" width="360" height="40" as="geometry" />
        </mxCell>
        <mxCell id="-f07cawAVxxKStE9k8_m-10" value="&lt;div style=&quot;text-align: left;&quot;&gt;&lt;span style=&quot;background-color: transparent; color: light-dark(rgb(0, 0, 0), rgb(255, 255, 255)); text-wrap-mode: nowrap;&quot;&gt;&lt;font style=&quot;font-size: 16px;&quot;&gt;pms-client：&lt;/font&gt;&lt;/span&gt;&lt;span style=&quot;color: rgba(6, 8, 31, 0.88); font-family: D-DINExp, &amp;quot;DM Sans&amp;quot;, -apple-system, &amp;quot;system-ui&amp;quot;, &amp;quot;Segoe UI&amp;quot;, Roboto, &amp;quot;Helvetica Neue&amp;quot;, Arial, &amp;quot;Noto Sans&amp;quot;, sans-serif, &amp;quot;Apple Color Emoji&amp;quot;, &amp;quot;Segoe UI Emoji&amp;quot;, &amp;quot;Segoe UI Symbol&amp;quot;, &amp;quot;Noto Color Emoji&amp;quot;; font-size: 16px; background-color: rgb(255, 255, 255);&quot;&gt;平台核心只提供管理、配置能力（对数据的配置）&lt;/span&gt;&lt;/div&gt;&lt;span style=&quot;color: rgba(6, 8, 31, 0.88); font-family: D-DINExp, &amp;quot;DM Sans&amp;quot;, -apple-system, &amp;quot;system-ui&amp;quot;, &amp;quot;Segoe UI&amp;quot;, Roboto, &amp;quot;Helvetica Neue&amp;quot;, Arial, &amp;quot;Noto Sans&amp;quot;, sans-serif, &amp;quot;Apple Color Emoji&amp;quot;, &amp;quot;Segoe UI Emoji&amp;quot;, &amp;quot;Segoe UI Symbol&amp;quot;, &amp;quot;Noto Color Emoji&amp;quot;; font-size: 16px; background-color: rgb(255, 255, 255);&quot;&gt;&lt;div style=&quot;text-align: left;&quot;&gt;&lt;span style=&quot;background-color: light-dark(rgb(255, 255, 255), rgb(18, 18, 18)); color: light-dark(rgba(6, 8, 31, 0.88), rgb(226, 228, 248));&quot;&gt;具体页面、表单、表格作为插件或子应用按需加载&lt;/span&gt;&lt;/div&gt;&lt;/span&gt;" style="whiteSpace=wrap;html=1;" vertex="1" parent="1">
          <mxGeometry x="240" y="540" width="380" height="160" as="geometry" />
        </mxCell>
        <mxCell id="-f07cawAVxxKStE9k8_m-11" value="" style="whiteSpace=wrap;html=1;" vertex="1" parent="1">
          <mxGeometry x="160" y="-310" width="120" height="60" as="geometry" />
        </mxCell>
        <mxCell id="-f07cawAVxxKStE9k8_m-12" value="&lt;font style=&quot;font-size: 16px;&quot;&gt;后台管理系统页面&lt;/font&gt;" style="text;html=1;align=center;verticalAlign=middle;resizable=0;points=[];autosize=1;strokeColor=none;fillColor=none;" vertex="1" parent="1">
          <mxGeometry x="315" y="-30" width="150" height="30" as="geometry" />
        </mxCell>
        <mxCell id="-f07cawAVxxKStE9k8_m-14" value="&lt;font style=&quot;font-size: 16px;&quot;&gt;可组件化部分：&lt;/font&gt;&lt;div&gt;&lt;font style=&quot;font-size: 16px;&quot;&gt;1、表单设计器&lt;/font&gt;&lt;/div&gt;&lt;div&gt;&lt;font style=&quot;font-size: 16px;&quot;&gt;2、表格设计器&lt;/font&gt;&lt;/div&gt;&lt;div&gt;&lt;font style=&quot;font-size: 16px;&quot;&gt;3、&lt;/font&gt;&lt;/div&gt;" style="whiteSpace=wrap;html=1;align=left;verticalAlign=top;spacingTop=0;spacing=9;" vertex="1" parent="1">
          <mxGeometry x="240" y="770" width="300" height="120" as="geometry" />
        </mxCell>
        <mxCell id="-f07cawAVxxKStE9k8_m-15" value="" style="whiteSpace=wrap;html=1;" vertex="1" parent="1">
          <mxGeometry x="160" y="1040" width="670" height="530" as="geometry" />
        </mxCell>
        <mxCell id="-f07cawAVxxKStE9k8_m-16" value="微前端" style="text;html=1;align=center;verticalAlign=middle;resizable=0;points=[];autosize=1;strokeColor=none;fillColor=none;fontSize=16;" vertex="1" parent="1">
          <mxGeometry x="175" y="998" width="70" height="30" as="geometry" />
        </mxCell>
        <mxCell id="-f07cawAVxxKStE9k8_m-17" value="header：项目切换" style="rounded=0;whiteSpace=wrap;html=1;" vertex="1" parent="1">
          <mxGeometry x="160" y="1040" width="670" height="70" as="geometry" />
        </mxCell>
        <mxCell id="-f07cawAVxxKStE9k8_m-18" value="首页" style="rounded=0;whiteSpace=wrap;html=1;" vertex="1" parent="1">
          <mxGeometry x="160" y="40" width="120" height="40" as="geometry" />
        </mxCell>
        <mxCell id="-f07cawAVxxKStE9k8_m-19" value="字典管理" style="rounded=0;whiteSpace=wrap;html=1;" vertex="1" parent="1">
          <mxGeometry x="160" y="80" width="120" height="40" as="geometry" />
        </mxCell>
        <mxCell id="-f07cawAVxxKStE9k8_m-20" value="xx管理" style="rounded=0;whiteSpace=wrap;html=1;" vertex="1" parent="1">
          <mxGeometry x="160" y="120" width="120" height="40" as="geometry" />
        </mxCell>
        <mxCell id="-f07cawAVxxKStE9k8_m-21" value="xx管理" style="rounded=0;whiteSpace=wrap;html=1;" vertex="1" parent="1">
          <mxGeometry x="160" y="160" width="120" height="40" as="geometry" />
        </mxCell>
      </root>
    </mxGraphModel>
  </diagram>
</mxfile>
